<?xml version="1.0" standalone="no"?>
<!DOCTYPE svg PUBLIC "-//W3C//DTD SVG 20010904//EN"
 "http://www.w3.org/TR/2001/REC-SVG-20010904/DTD/svg10.dtd">
<svg version="1.0" xmlns="http://www.w3.org/2000/svg"
 width="192.000000pt" height="192.000000pt" viewBox="0 0 192.000000 192.000000"
 preserveAspectRatio="xMidYMid meet">
<metadata>
Created by potrace 1.11, written by Peter Selinger 2001-2013
</metadata>
<g transform="translate(0.000000,192.000000) scale(0.100000,-0.100000)"
fill="#000000" stroke="none">
<path d="M828 1690 c-296 -54 -525 -268 -599 -561 -18 -70 -18 -258 0 -328
103 -404 504 -647 902 -546 35 9 107 37 159 63 79 38 110 61 181 132 71 71 94
101 132 180 64 129 81 201 81 335 0 134 -17 206 -81 335 -38 79 -61 110 -132
181 -71 71 -102 94 -181 132 -52 26 -122 54 -155 62 -72 19 -242 27 -307 15z
m257 -65 c242 -51 445 -244 511 -486 28 -102 24 -272 -9 -374 -35 -107 -89
-195 -167 -275 -324 -330 -867 -236 -1070 185 -93 192 -91 391 5 590 132 273
435 422 730 360z"/>
<path d="M616 1334 c-8 -20 -8 -728 0 -748 5 -13 57 -24 66 -13 1 1 5 144 8
317 l5 315 263 -312 c144 -172 271 -317 281 -322 13 -7 23 -6 35 2 15 11 16
48 14 392 l-3 380 -30 0 -30 0 -3 -312 c-1 -172 -6 -313 -10 -312 -4 0 -126
142 -271 315 -229 273 -267 314 -291 314 -16 0 -30 -7 -34 -16z"/>
</g>
</svg>
